# xmcd
#
# Track frame offsets:
#	150
#	15535
#	33978
#	56014
#	72098
#	85320
#	102013
#	111449
#	130054
#	140182
#	159688
#	172281
#	189077
#	199841
#
# Disc length: 2864 seconds
#
# Revision: 1
# Processed by: cddbd v1.5.2PL0 Copyright (c) Steve Scherf et al.
# Submitted via: EasyCDDAExtractor 12.0.4.1
#
DISCID=c50b2e0e
DTITLE=Taxmeni - 40 let
DYEAR=2009
DGENRE=Country
TTITLE0=Srdce v ruce mam
TTITLE1=Dedeckovy hodiny
TTITLE2=Pozdrav Cerneho korzara
TTITLE3=Kanadani a Herzegovina
TTITLE4=Biggles
TTITLE5=Mistre Buriane, dik za ten svet
TTITLE6=Bitva o New Orleans
TTITLE7=Jo vsichni to maj
TTITLE8=Vyznani Bimbovi
TTITLE9=Pesti ve tme
TTITLE10=Sto Zelenych baretu
TTITLE11=Rekni kde ty kytky jsou
TTITLE12=Zamknete branu a zavrete dum
TTITLE13=Blues pro vsedni den
EXTD=
EXTT0=
EXTT1=
EXTT2=
EXTT3=
EXTT4=
EXTT5=
EXTT6=
EXTT7=
EXTT8=
EXTT9=
EXTT10=
EXTT11=
EXTT12=
EXTT13=
PLAYORDER=
